<svg width="8" height="9" viewBox="0 0 8 9" fill="none" xmlns="http://www.w3.org/2000/svg">
<g id="Vector">
<path d="M6.60732 8.76807L1.39195 8.76807C0.32381 8.76807 -0.346504 7.4969 0.187567 6.48235L1.49005 4.00567L2.79798 1.52898C3.33205 0.514429 4.66723 0.51443 5.2013 1.52898L6.50923 4.00567L7.81171 6.48235C8.34578 7.4969 7.68092 8.76807 6.60732 8.76807Z" fill="#0ED2F6"/>
<path d="M6.60732 8.76807L1.39195 8.76807C0.32381 8.76807 -0.346504 7.4969 0.187567 6.48235L1.49005 4.00567L2.79798 1.52898C3.33205 0.514429 4.66723 0.51443 5.2013 1.52898L6.50923 4.00567L7.81171 6.48235C8.34578 7.4969 7.68092 8.76807 6.60732 8.76807Z" fill="black" fill-opacity="0.1"/>
</g>
</svg>
