<svg width="23" height="23" viewBox="0 0 23 23" fill="none" xmlns="http://www.w3.org/2000/svg">
<g id="Group">
<path id="Vector" d="M10.4458 3.37646H3.48795C2.96072 3.37646 2.45507 3.58591 2.08226 3.95872C1.70944 4.33154 1.5 4.83718 1.5 5.36442V19.2801C1.5 19.8073 1.70944 20.313 2.08226 20.6858C2.45507 21.0586 2.96072 21.2681 3.48795 21.2681H17.4036C17.9309 21.2681 18.4365 21.0586 18.8093 20.6858C19.1821 20.313 19.3916 19.8073 19.3916 19.2801V12.3223" stroke="#B2C2CB" stroke-width="1.5" stroke-linecap="round" stroke-linejoin="round"/>
<path id="Vector_2" d="M17.9006 1.88564C18.2961 1.49022 18.8324 1.26807 19.3916 1.26807C19.9508 1.26807 20.4871 1.49022 20.8826 1.88564C21.278 2.28107 21.5001 2.81739 21.5001 3.37661C21.5001 3.93583 21.278 4.47215 20.8826 4.86758L11.4398 14.3104L7.46387 15.3043L8.45784 11.3284L17.9006 1.88564Z" stroke="#B2C2CB" stroke-width="1.5" stroke-linecap="round" stroke-linejoin="round"/>
</g>
</svg>
