<svg width="40" height="41" viewBox="0 0 40 41" fill="none" xmlns="http://www.w3.org/2000/svg">
<mask id="path-1-inside-1_3968_3225" fill="white">
<path d="M15.4654 5.26807L14.4064 5.39552C14.4064 5.39552 9.65524 5.91485 6.18541 8.70129H6.14474L6.10135 8.74196C5.32304 9.4579 4.98406 10.3379 4.44847 11.6247C3.81712 13.1728 3.27965 14.7576 2.83897 16.3704C1.83287 20.0084 1.0166 24.4152 1.0166 28.4464V28.7854L1.18609 29.1243C2.44169 31.3277 4.67084 32.7311 6.73728 33.7006C8.80236 34.6701 10.5881 35.184 11.822 35.226L12.6274 35.2681L13.0505 34.5481L14.5339 31.9203C16.1068 32.2755 17.9183 32.5142 19.9996 32.5142C22.081 32.5142 23.8925 32.2755 25.4654 31.9203L26.9488 34.5481L27.3732 35.2681L28.1773 35.226C29.4112 35.184 31.1969 34.6701 33.262 33.7006C35.3285 32.7311 37.5576 31.3277 38.8132 29.1243L38.9827 28.7854V28.4464C38.9827 24.4152 38.1664 20.0084 37.1603 16.3704C36.7197 14.7576 36.1822 13.1728 35.5508 11.6247C35.0152 10.3365 34.6763 9.4579 33.8979 8.74332L33.8559 8.69993H33.8125C30.3454 5.91485 25.5929 5.39552 25.5929 5.39552L24.5339 5.26807L24.1515 6.24298C24.1515 6.24298 23.7596 7.23281 23.5169 8.3623C22.3512 8.20147 21.1764 8.11632 19.9996 8.10739C19.2742 8.10739 18.02 8.15485 16.4824 8.3623C16.2383 7.23281 15.8464 6.24298 15.8464 6.24298L15.4654 5.26807ZM13.601 8.3623C13.6593 8.55213 13.7176 8.7162 13.7705 8.87078C12.0173 9.30468 10.1474 9.96637 8.43219 11.0308L9.87219 13.3196C13.3895 11.1365 18.4417 10.8193 19.9996 10.8193C21.5563 10.8193 26.6098 11.1365 30.1271 13.3196L31.5671 11.0308C29.8518 9.96637 27.982 9.30468 26.2288 8.86942C26.2817 8.7162 26.34 8.55213 26.3983 8.36095C27.6634 8.61586 30.0796 9.19891 32.0756 10.7772C32.0647 10.7826 32.5841 11.5664 33.0505 12.6837C33.5278 13.8335 34.0566 15.3643 34.5339 17.0904C35.4505 20.4003 36.1705 24.4315 36.2288 27.9799C35.3746 29.283 33.7922 30.4586 32.1176 31.2437C31.0674 31.7399 29.9564 32.0955 28.8132 32.3013L28.1352 31.1582C28.5379 31.0091 28.9352 30.8464 29.2796 30.6918C31.3664 29.7752 32.5 28.7854 32.5 28.7854L30.7196 26.7515C30.7196 26.7515 29.9576 27.4511 28.1773 28.2348C26.3996 29.0186 23.681 29.8023 19.9996 29.8023C16.3183 29.8023 13.601 29.0186 11.822 28.2348C10.0417 27.4511 9.27965 26.7515 9.27965 26.7515L7.49931 28.7854C7.49931 28.7854 8.63287 29.7752 10.7196 30.6918C11.0641 30.8464 11.4613 31.0104 11.8641 31.1582L11.1861 32.3026C10.0423 32.0961 8.93081 31.7396 7.88033 31.2423C6.20711 30.4586 4.62338 29.283 3.77186 27.9799C3.8288 24.4315 4.5488 20.4003 5.46677 17.0904C5.8724 15.5933 6.36729 14.1217 6.9488 12.6837C7.41524 11.5664 7.93457 10.7826 7.92372 10.7772C9.91965 9.19891 12.3359 8.61586 13.601 8.3623ZM15.2539 17.5989C14.2058 17.5989 13.2783 18.1969 12.7115 18.9548C12.1447 19.7128 11.8641 20.6443 11.8641 21.6667C11.8641 22.6891 12.1447 23.6206 12.7115 24.3786C13.2783 25.1365 14.2058 25.7345 15.2539 25.7345C16.302 25.7345 17.2295 25.1365 17.7963 24.3786C18.363 23.6206 18.6437 22.6891 18.6437 21.6667C18.6437 20.6443 18.363 19.7128 17.7963 18.9548C17.2295 18.1969 16.302 17.5989 15.2539 17.5989ZM24.7454 17.5989C23.6973 17.5989 22.7698 18.1969 22.203 18.9548C21.6363 19.7128 21.3556 20.6443 21.3556 21.6667C21.3556 22.6891 21.6363 23.6206 22.203 24.3786C22.7698 25.1365 23.6973 25.7345 24.7454 25.7345C25.7935 25.7345 26.721 25.1365 27.2878 24.3786C27.8546 23.6206 28.1352 22.6891 28.1352 21.6667C28.1352 20.6443 27.8546 19.7128 27.2878 18.9548C26.721 18.1969 25.7935 17.5989 24.7454 17.5989ZM15.2539 20.3108C15.3285 20.3108 15.4234 20.3379 15.5929 20.5657C15.7624 20.7921 15.9319 21.1894 15.9319 21.6667C15.9319 22.144 15.7624 22.5413 15.5929 22.7691C15.4234 22.9955 15.3285 23.0226 15.2539 23.0226C15.1793 23.0226 15.0844 22.9955 14.9149 22.7677C14.6907 22.4447 14.5722 22.06 14.5759 21.6667C14.5759 21.1894 14.7454 20.7921 14.9149 20.5643C15.0844 20.3379 15.1793 20.3108 15.2539 20.3108ZM24.7454 20.3108C24.82 20.3108 24.9149 20.3379 25.0844 20.5657C25.2539 20.7921 25.4234 21.1894 25.4234 21.6667C25.4234 22.144 25.2539 22.5413 25.0844 22.7691C24.9149 22.9955 24.82 23.0226 24.7454 23.0226C24.6708 23.0226 24.5759 22.9955 24.4064 22.7677C24.1822 22.4447 24.0637 22.06 24.0674 21.6667C24.0674 21.1894 24.2369 20.7921 24.4064 20.5643C24.5759 20.3379 24.6708 20.3108 24.7454 20.3108Z"/>
</mask>
<path d="M15.4654 5.26807L14.4064 5.39552C14.4064 5.39552 9.65524 5.91485 6.18541 8.70129H6.14474L6.10135 8.74196C5.32304 9.4579 4.98406 10.3379 4.44847 11.6247C3.81712 13.1728 3.27965 14.7576 2.83897 16.3704C1.83287 20.0084 1.0166 24.4152 1.0166 28.4464V28.7854L1.18609 29.1243C2.44169 31.3277 4.67084 32.7311 6.73728 33.7006C8.80236 34.6701 10.5881 35.184 11.822 35.226L12.6274 35.2681L13.0505 34.5481L14.5339 31.9203C16.1068 32.2755 17.9183 32.5142 19.9996 32.5142C22.081 32.5142 23.8925 32.2755 25.4654 31.9203L26.9488 34.5481L27.3732 35.2681L28.1773 35.226C29.4112 35.184 31.1969 34.6701 33.262 33.7006C35.3285 32.7311 37.5576 31.3277 38.8132 29.1243L38.9827 28.7854V28.4464C38.9827 24.4152 38.1664 20.0084 37.1603 16.3704C36.7197 14.7576 36.1822 13.1728 35.5508 11.6247C35.0152 10.3365 34.6763 9.4579 33.8979 8.74332L33.8559 8.69993H33.8125C30.3454 5.91485 25.5929 5.39552 25.5929 5.39552L24.5339 5.26807L24.1515 6.24298C24.1515 6.24298 23.7596 7.23281 23.5169 8.3623C22.3512 8.20147 21.1764 8.11632 19.9996 8.10739C19.2742 8.10739 18.02 8.15485 16.4824 8.3623C16.2383 7.23281 15.8464 6.24298 15.8464 6.24298L15.4654 5.26807ZM13.601 8.3623C13.6593 8.55213 13.7176 8.7162 13.7705 8.87078C12.0173 9.30468 10.1474 9.96637 8.43219 11.0308L9.87219 13.3196C13.3895 11.1365 18.4417 10.8193 19.9996 10.8193C21.5563 10.8193 26.6098 11.1365 30.1271 13.3196L31.5671 11.0308C29.8518 9.96637 27.982 9.30468 26.2288 8.86942C26.2817 8.7162 26.34 8.55213 26.3983 8.36095C27.6634 8.61586 30.0796 9.19891 32.0756 10.7772C32.0647 10.7826 32.5841 11.5664 33.0505 12.6837C33.5278 13.8335 34.0566 15.3643 34.5339 17.0904C35.4505 20.4003 36.1705 24.4315 36.2288 27.9799C35.3746 29.283 33.7922 30.4586 32.1176 31.2437C31.0674 31.7399 29.9564 32.0955 28.8132 32.3013L28.1352 31.1582C28.5379 31.0091 28.9352 30.8464 29.2796 30.6918C31.3664 29.7752 32.5 28.7854 32.5 28.7854L30.7196 26.7515C30.7196 26.7515 29.9576 27.4511 28.1773 28.2348C26.3996 29.0186 23.681 29.8023 19.9996 29.8023C16.3183 29.8023 13.601 29.0186 11.822 28.2348C10.0417 27.4511 9.27965 26.7515 9.27965 26.7515L7.49931 28.7854C7.49931 28.7854 8.63287 29.7752 10.7196 30.6918C11.0641 30.8464 11.4613 31.0104 11.8641 31.1582L11.1861 32.3026C10.0423 32.0961 8.93081 31.7396 7.88033 31.2423C6.20711 30.4586 4.62338 29.283 3.77186 27.9799C3.8288 24.4315 4.5488 20.4003 5.46677 17.0904C5.8724 15.5933 6.36729 14.1217 6.9488 12.6837C7.41524 11.5664 7.93457 10.7826 7.92372 10.7772C9.91965 9.19891 12.3359 8.61586 13.601 8.3623ZM15.2539 17.5989C14.2058 17.5989 13.2783 18.1969 12.7115 18.9548C12.1447 19.7128 11.8641 20.6443 11.8641 21.6667C11.8641 22.6891 12.1447 23.6206 12.7115 24.3786C13.2783 25.1365 14.2058 25.7345 15.2539 25.7345C16.302 25.7345 17.2295 25.1365 17.7963 24.3786C18.363 23.6206 18.6437 22.6891 18.6437 21.6667C18.6437 20.6443 18.363 19.7128 17.7963 18.9548C17.2295 18.1969 16.302 17.5989 15.2539 17.5989ZM24.7454 17.5989C23.6973 17.5989 22.7698 18.1969 22.203 18.9548C21.6363 19.7128 21.3556 20.6443 21.3556 21.6667C21.3556 22.6891 21.6363 23.6206 22.203 24.3786C22.7698 25.1365 23.6973 25.7345 24.7454 25.7345C25.7935 25.7345 26.721 25.1365 27.2878 24.3786C27.8546 23.6206 28.1352 22.6891 28.1352 21.6667C28.1352 20.6443 27.8546 19.7128 27.2878 18.9548C26.721 18.1969 25.7935 17.5989 24.7454 17.5989ZM15.2539 20.3108C15.3285 20.3108 15.4234 20.3379 15.5929 20.5657C15.7624 20.7921 15.9319 21.1894 15.9319 21.6667C15.9319 22.144 15.7624 22.5413 15.5929 22.7691C15.4234 22.9955 15.3285 23.0226 15.2539 23.0226C15.1793 23.0226 15.0844 22.9955 14.9149 22.7677C14.6907 22.4447 14.5722 22.06 14.5759 21.6667C14.5759 21.1894 14.7454 20.7921 14.9149 20.5643C15.0844 20.3379 15.1793 20.3108 15.2539 20.3108ZM24.7454 20.3108C24.82 20.3108 24.9149 20.3379 25.0844 20.5657C25.2539 20.7921 25.4234 21.1894 25.4234 21.6667C25.4234 22.144 25.2539 22.5413 25.0844 22.7691C24.9149 22.9955 24.82 23.0226 24.7454 23.0226C24.6708 23.0226 24.5759 22.9955 24.4064 22.7677C24.1822 22.4447 24.0637 22.06 24.0674 21.6667C24.0674 21.1894 24.2369 20.7921 24.4064 20.5643C24.5759 20.3379 24.6708 20.3108 24.7454 20.3108Z" fill="#B2C2CB" stroke="#2E333A" stroke-width="0.8" mask="url(#path-1-inside-1_3968_3225)"/>
</svg>
