<svg width="42" height="41" viewBox="0 0 42 41" fill="none" xmlns="http://www.w3.org/2000/svg">
<path d="M9.29177 9.98604L9.41648 9.9523L9.43701 9.82475C9.81702 7.46295 11.7586 5.62707 14.2212 5.58409C16.5451 5.54352 18.4616 7.11808 19.0649 9.26392L19.1066 9.41245L19.2609 9.40976L22.3583 9.35569L22.5124 9.353L22.5491 9.20321C23.0783 7.03749 24.9388 5.39701 27.2627 5.35645C29.7253 5.31346 31.7298 7.08301 32.192 9.42631L32.2168 9.55241L32.3419 9.58217C34.7697 10.1601 36.8412 11.6937 37.8112 13.8988L37.8113 13.9019L37.8128 13.9885L37.877 14.0467L37.8836 14.0527L40.9851 22.2695L40.9847 22.2696L40.9899 22.2811C41.4715 23.3491 41.7474 24.5332 41.7691 25.7759C41.8549 30.6917 37.9116 34.7751 32.9959 34.8609C28.5678 34.9382 24.8188 31.7474 24.056 27.5207L23.9873 27.1402L23.7165 27.4161C23.0524 28.0923 22.149 28.5275 21.1447 28.545C20.1403 28.5625 19.221 28.1591 18.5353 27.5066L18.255 27.2399L18.1995 27.6228C17.5834 31.8737 13.9492 35.1933 9.52119 35.2706C4.60544 35.3564 0.522069 31.4132 0.436264 26.4974C0.411882 25.1006 0.726413 23.767 1.28412 22.5733L1.28887 22.5631L1.29246 22.5525L3.88552 14.8559L3.92299 14.8552L3.96895 14.7236C4.83797 12.236 6.88953 10.6358 9.29177 9.98604ZM24.542 10.4221L24.5613 11.5263L17.1363 11.6559L17.117 10.5517C17.1027 9.72924 16.8096 9.02904 16.3009 8.5378C15.7922 8.04655 15.0822 7.77809 14.2597 7.79245C13.4373 7.8068 12.7371 8.09988 12.2458 8.60858C11.7546 9.11728 11.4861 9.82727 11.5005 10.6497L11.518 11.651L10.5176 11.7725L10.5172 11.7725C8.44253 12.028 6.79831 13.2989 6.05187 15.405L6.03978 15.4391L6.04041 15.4753L6.04047 15.4787L5.1204 18.1121L4.95791 18.5772L5.3986 18.357C6.55053 17.7814 7.84319 17.4363 9.20948 17.4125C12.9362 17.3474 16.1677 19.6084 17.5597 22.8498L17.7112 23.2027L17.9135 22.8762C18.5573 21.8367 19.7115 21.1428 21.0151 21.1201C22.32 21.0973 23.4977 21.7517 24.1762 22.7656L24.3898 23.0849L24.5288 22.7268C25.8055 19.4389 28.9561 17.0665 32.6841 17.0014C34.0664 16.9773 35.3808 17.3032 36.5644 17.8529L37.0061 18.058L36.836 17.6016L35.8095 14.8474L35.8089 14.8456C35.7991 14.8202 35.788 14.7984 35.7801 14.7833C35.7771 14.7776 35.7747 14.773 35.7727 14.7691C35.7685 14.7612 35.7657 14.756 35.7628 14.7499C34.9514 12.9599 33.2 11.5883 31.1803 11.4118L31.18 11.4118L30.176 11.3253L30.1585 10.3241C30.1442 9.5016 29.8511 8.8014 29.3424 8.31016C28.8337 7.81891 28.1237 7.55045 27.3012 7.56481C26.4788 7.57916 25.7786 7.87224 25.2873 8.38094C24.7961 8.88964 24.5276 9.59963 24.542 10.4221ZM3.22427 23.6331L3.22426 23.6331L3.2233 23.6354C3.20167 23.6861 3.19457 23.7384 3.1911 23.7639L3.19052 23.7681C3.18683 23.7948 3.18524 23.8016 3.18538 23.8017C2.84913 24.621 2.62792 25.5022 2.64462 26.4589C2.70967 30.1857 5.7558 33.1273 9.48265 33.0623C13.2095 32.9972 16.1511 29.9511 16.0861 26.2242C16.021 22.4974 12.9749 19.5558 9.24803 19.6208C6.53215 19.6683 4.24816 21.3117 3.22427 23.6331ZM39.5607 25.8145C39.4957 22.0877 36.4496 19.146 32.7227 19.2111C28.9959 19.2761 26.0543 22.3223 26.1193 26.0491C26.1844 29.776 29.2305 32.7176 32.9573 32.6525C36.6842 32.5875 39.6258 29.5413 39.5607 25.8145ZM22.584 24.8063C22.5693 23.9603 21.8996 23.3136 21.0537 23.3284C20.2077 23.3432 19.561 24.0128 19.5758 24.8588C19.5906 25.7048 20.2602 26.3514 21.1062 26.3367C21.9521 26.3219 22.5988 25.6523 22.584 24.8063Z" fill="#B2C2CB" stroke="#2E333A" stroke-width="0.4"/>
</svg>
