<svg width="40" height="41" viewBox="0 0 40 41" fill="none" xmlns="http://www.w3.org/2000/svg">
<path d="M27.8782 8.46219L27.8826 8.71215L28.1326 8.70779L31.4654 8.64962C33.1604 8.62003 34.5725 9.98366 34.6021 11.6787L34.6311 13.3451C34.703 17.4643 31.6601 20.8819 27.6738 21.453L27.5307 21.4735L27.4771 21.6077C26.5012 24.0499 24.3504 25.9147 21.7257 26.494L21.5261 26.538L21.5296 26.7424L21.6198 31.9083L21.6242 32.1583L21.8741 32.1539L26.8734 32.0667C27.6557 32.053 28.3009 32.6761 28.3145 33.4584C28.3282 34.2407 27.7051 34.8859 26.9228 34.8996L13.5915 35.1323C12.8092 35.1459 12.164 34.5228 12.1503 33.7405C12.1367 32.9582 12.7598 32.313 13.5421 32.2994L18.5413 32.2121L18.7913 32.2077L18.7869 31.9578L18.6967 26.7919L18.6932 26.5875L18.4921 26.5504C15.8488 26.0631 13.6343 24.2745 12.5737 21.8679L12.5154 21.7356L12.3717 21.7201C8.36787 21.2884 5.20754 17.9792 5.13563 13.8599L5.10655 12.1935C5.07696 10.4985 6.44059 9.08643 8.1356 9.05684L11.4684 8.99866L11.7184 8.9943L11.714 8.74434C11.6843 7.04172 13.0405 5.63738 14.7431 5.60766L24.7416 5.43314C26.4442 5.40342 27.8485 6.75957 27.8782 8.46219ZM8.18505 11.8897L7.93508 11.8941L7.93945 12.1441L7.96853 13.8105C8.00829 16.0882 9.51347 17.9855 11.5524 18.6837L11.8895 18.7992L11.8833 18.4429L11.7722 12.0772L11.7678 11.8272L11.5179 11.8316L8.18505 11.8897ZM14.7925 8.44057L14.5426 8.44493L14.5469 8.69489L14.7214 18.6934C14.7719 21.581 17.1746 23.9013 20.0623 23.8509C22.9499 23.8005 25.2703 21.3977 25.2198 18.5101L25.0453 8.51164L25.041 8.26168L24.791 8.26604L14.7925 8.44057ZM28.0475 18.1607L28.0537 18.5171L28.3867 18.3899C30.4 17.621 31.838 15.6723 31.7982 13.3945L31.7692 11.7281L31.7648 11.4782L31.5148 11.4825L28.182 11.5407L27.932 11.5451L27.9364 11.795L28.0475 18.1607Z" fill="white" stroke="#2E333A" stroke-width="0.5"/>
</svg>
